# xmcd
#
# Track frame offsets:
#       150
#       18260
#       25002
#       35977
#       48347
#       54090
#       79775
#       97485
#       105860
#       117530
#       151027
#       165435
#       175937
#       187742
#       192982
#       212757
#       218092
#       230262
#       261150
#
# Disc length: 3950 seconds
#
# Revision: 0
# Processed by: cddbd v1.5.2PL0 Copyright (c) Steve Scherf et al.
# Submitted via: WaveLab 4.01
#
DISCID=f10f6c13
DTITLE=Reader Digest - Mágica Navidad
DYEAR=1900
DGENRE=
TTITLE0=01 Sinfonía pastoral de El Mesísas (Haendel)
TTITLE1=02 Vivace-grave
TTITLE2=03 Allegro
TTITLE3=04 Adagio-allegro-adagio
TTITLE4=05 Vivace
TTITLE5=06 Allegro pastorale - Concierto de Navidad
TTITLE6=07 Largo
TTITLE7=08 Largo
TTITLE8=09 Allegro
TTITLE9=10 Sinfonía de Oratorio de Navidad (Bach)
TTITLE10=11 Obertura miniatura
TTITLE11=12 Marcha miniatura
TTITLE12=13 Danza del hada del azúcar
TTITLE13=14 Danza rusa
TTITLE14=15 Danza árabe
TTITLE15=16 Danza China
TTITLE16=17 Danza de las flautas de Carrizo
TTITLE17=18 Escena del árbol navideño
TTITLE18=19 Vals de las flores
EXTD=
EXTT0=
EXTT1=
EXTT2=
EXTT3=
EXTT4=
EXTT5=
EXTT6=
EXTT7=
EXTT8=
EXTT9=
EXTT10=
EXTT11=
EXTT12=
EXTT13=
EXTT14=
EXTT15=
EXTT16=
EXTT17=
EXTT18=
PLAYORDER=
